# xmcd CD database file
#
# Track frame offsets:
#	150
#	18870
#	45225
#	51784
#	60465
#	88945
#	92086
#	139024
#	147252
#	189548
#
# Disc length: 2638 seconds
#
# Revision: 0
# Processed by: cddbd v1.5.2PL0 Copyright (c) Steve Scherf et al.
# Submitted via: CDex 1.51
#
DISCID=7f0a4c0a
DTITLE=De Beren Gieren - One Mirrors Many
DYEAR=2015
DGENRE=Jazz
TTITLE0=Schaduwleven
TTITLE1=Rebel Jazz to rebel against
TTITLE2=Broensgebuzze 8
TTITLE3=(untitled 1)
TTITLE4=La laisse lointaine
TTITLE5=(untitled 2)
TTITLE6=(De zachte jacht op de) Volkswolf
TTITLE7=Broensgebuzze 7
TTITLE8=Muziek weet niks
TTITLE9=(untitled 3)
EXTD=YEAR: 2015
EXTT0=
EXTT1=
EXTT2=
EXTT3=
EXTT4=
EXTT5=
EXTT6=
EXTT7=
EXTT8=
EXTT9=
PLAYORDER=
